<svg width="40" height="40" viewBox="0 0 40 40" fill="none" xmlns="http://www.w3.org/2000/svg">
<rect width="40" height="40" rx="20" fill="#F15551"/>
<g clip-path="url(#clip0_1397_5720)">
<path d="M18.6125 7.28125C18.5422 7.1125 18.3781 7 18.1953 7H17.3047C17.1219 7 16.9531 7.1125 16.8875 7.28125L15.9172 9.70469C15.7672 10.0797 15.2328 10.0797 15.0828 9.70469L14.1125 7.28125C14.0422 7.1125 13.8781 7 13.6953 7H13.25C12.0078 7 11 8.00781 11 9.25V19H29V9.25C29 8.00781 27.9922 7 26.75 7H21.8047C21.6219 7 21.4531 7.1125 21.3875 7.28125L20.4172 9.70469C20.2672 10.0797 19.7328 10.0797 19.5828 9.70469L18.6125 7.28125ZM11 20.5V22C11 23.6547 12.3453 25 14 25H17V28C17 29.6547 18.3453 31 20 31C21.6547 31 23 29.6547 23 28V25H26C27.6547 25 29 23.6547 29 22V20.5H11ZM20 27.25C20.1989 27.25 20.3897 27.329 20.5303 27.4697C20.671 27.6103 20.75 27.8011 20.75 28C20.75 28.1989 20.671 28.3897 20.5303 28.5303C20.3897 28.671 20.1989 28.75 20 28.75C19.8011 28.75 19.6103 28.671 19.4697 28.5303C19.329 28.3897 19.25 28.1989 19.25 28C19.25 27.8011 19.329 27.6103 19.4697 27.4697C19.6103 27.329 19.8011 27.25 20 27.25Z" fill="white"/>
</g>
<defs>
<clipPath id="clip0_1397_5720">
<rect width="18" height="24" fill="white" transform="translate(11 7)"/>
</clipPath>
</defs>
</svg>
