<svg width="40" height="40" viewBox="0 0 40 40" fill="none" xmlns="http://www.w3.org/2000/svg">
<rect width="40" height="40" rx="20" fill="#4BCA51"/>
<path d="M22.9677 29.6C22.0948 29.6015 21.252 29.2815 20.6001 28.7012V23.6H23.0001C23.4774 23.6 23.9353 23.4104 24.2729 23.0728C24.6104 22.7352 24.8001 22.2774 24.8001 21.8V21.098C25.2004 20.9565 25.5378 20.678 25.7526 20.3117C25.9675 19.9455 26.0459 19.5151 25.9741 19.0966C25.9023 18.6781 25.6849 18.2984 25.3603 18.0247C25.0356 17.751 24.6247 17.6009 24.2001 17.6009C23.7754 17.6009 23.3645 17.751 23.0399 18.0247C22.7152 18.2984 22.4978 18.6781 22.426 19.0966C22.3542 19.5151 22.4326 19.9455 22.6475 20.3117C22.8623 20.678 23.1997 20.9565 23.6001 21.098V21.8C23.6001 21.9591 23.5368 22.1117 23.4243 22.2243C23.3118 22.3368 23.1592 22.4 23.0001 22.4H20.6001V10.9544C20.9946 10.6679 21.4548 10.4851 21.9385 10.423C22.4221 10.3609 22.9136 10.4215 23.3677 10.599C23.8218 10.7766 24.224 11.0656 24.5372 11.4393C24.8504 11.813 25.0646 12.2594 25.1601 12.7376L25.3101 13.49L25.7973 13.5872C26.5311 13.7344 27.1913 14.1311 27.6658 14.7099C28.1403 15.2887 28.3997 16.014 28.4001 16.7624V17C28.4001 17.8712 28.0281 18.656 27.4341 19.2044C28.1596 19.5639 28.7551 20.1405 29.138 20.854C29.5208 21.5675 29.6719 22.3825 29.5703 23.1858C29.4687 23.9891 29.1194 24.7409 28.571 25.3366C28.0226 25.9323 27.3023 26.3424 26.5101 26.51L26.4657 26.732C26.3046 27.541 25.8679 28.2691 25.23 28.7921C24.5921 29.3151 23.7925 29.6006 22.9677 29.6ZM17.6925 10.4C18.3309 10.4 18.9201 10.6052 19.4001 10.9544V15.2H18.6981C18.5565 14.7997 18.278 14.4623 17.9118 14.2474C17.5455 14.0326 17.1151 13.9541 16.6966 14.0259C16.2781 14.0977 15.8985 14.3152 15.6248 14.6398C15.3511 14.9644 15.201 15.3754 15.201 15.8C15.201 16.2246 15.3511 16.6356 15.6248 16.9602C15.8985 17.2848 16.2781 17.5023 16.6966 17.5741C17.1151 17.6459 17.5455 17.5674 17.9118 17.3526C18.278 17.1377 18.5565 16.8003 18.6981 16.4H19.4001V28.7012C18.9306 29.1176 18.3596 29.4029 17.7447 29.5282C17.1298 29.6534 16.4927 29.6143 15.8977 29.4147C15.3028 29.2151 14.771 28.862 14.3561 28.3912C13.9411 27.9204 13.6577 27.3485 13.5345 26.7332L13.4901 26.51C12.8104 26.3661 12.1816 26.0431 11.6687 25.5745C11.1558 25.106 10.7774 24.5088 10.5728 23.8449C10.3682 23.181 10.3447 22.4745 10.5049 21.7985C10.665 21.1225 11.0029 20.5015 11.4837 20H15.8001C15.9592 20 16.1118 20.0632 16.2243 20.1757C16.3368 20.2883 16.4001 20.4409 16.4001 20.6V21.302C15.9997 21.4435 15.6623 21.722 15.4475 22.0883C15.2326 22.4545 15.1542 22.8849 15.226 23.3034C15.2978 23.7219 15.5152 24.1016 15.8399 24.3753C16.1645 24.6489 16.5754 24.7991 17.0001 24.7991C17.4247 24.7991 17.8356 24.6489 18.1603 24.3753C18.4849 24.1016 18.7023 23.7219 18.7741 23.3034C18.8459 22.8849 18.7675 22.4545 18.5526 22.0883C18.3378 21.722 18.0004 21.4435 17.6001 21.302V20.6C17.6001 20.1226 17.4104 19.6648 17.0729 19.3272C16.7353 18.9896 16.2774 18.8 15.8001 18.8H12.2001C11.8106 18.2807 11.6001 17.6491 11.6001 17V16.7624C11.6004 16.014 11.8599 15.2887 12.3343 14.7099C12.8088 14.1311 13.469 13.7344 14.2029 13.5872L14.6901 13.4912L14.8401 12.7376C14.9712 12.0779 15.3273 11.4842 15.8476 11.0579C16.3678 10.6316 17.0199 10.399 17.6925 10.4ZM17.0001 15.2C17.1592 15.2 17.3118 15.2632 17.4243 15.3757C17.5368 15.4883 17.6001 15.6409 17.6001 15.8C17.6001 15.9591 17.5368 16.1117 17.4243 16.2243C17.3118 16.3368 17.1592 16.4 17.0001 16.4C16.8409 16.4 16.6883 16.3368 16.5758 16.2243C16.4633 16.1117 16.4001 15.9591 16.4001 15.8C16.4001 15.6409 16.4633 15.4883 16.5758 15.3757C16.6883 15.2632 16.8409 15.2 17.0001 15.2ZM17.0001 23.6C17.1592 23.6 17.3118 23.5368 17.4243 23.4243C17.5368 23.3117 17.6001 23.1591 17.6001 23C17.6001 22.8409 17.5368 22.6883 17.4243 22.5757C17.3118 22.4632 17.1592 22.4 17.0001 22.4C16.8409 22.4 16.6883 22.4632 16.5758 22.5757C16.4633 22.6883 16.4001 22.8409 16.4001 23C16.4001 23.1591 16.4633 23.3117 16.5758 23.4243C16.6883 23.5368 16.8409 23.6 17.0001 23.6ZM24.2001 20C24.3592 20 24.5118 19.9368 24.6243 19.8243C24.7368 19.7117 24.8001 19.5591 24.8001 19.4C24.8001 19.2409 24.7368 19.0883 24.6243 18.9757C24.5118 18.8632 24.3592 18.8 24.2001 18.8C24.0409 18.8 23.8883 18.8632 23.7758 18.9757C23.6633 19.0883 23.6001 19.2409 23.6001 19.4C23.6001 19.5591 23.6633 19.7117 23.7758 19.8243C23.8883 19.9368 24.0409 20 24.2001 20Z" fill="white"/>
</svg>
