<svg width="40" height="40" viewBox="0 0 40 40" fill="none" xmlns="http://www.w3.org/2000/svg">
<rect width="40" height="40" rx="20" fill="#FF9517"/>
<path d="M23.0615 10.1044H17.0661C16.8792 10.1044 16.7857 10.1044 16.7032 10.1328C16.6302 10.158 16.5637 10.1991 16.5086 10.2531C16.4462 10.3142 16.4044 10.3978 16.3208 10.565L11.9458 19.315C11.7461 19.7144 11.6463 19.914 11.6703 20.0763C11.6912 20.2181 11.7696 20.3449 11.887 20.427C12.0214 20.521 12.2447 20.521 12.6911 20.521H19.1553L16.0303 30.9377L28.7314 17.7661C29.1599 17.3218 29.3742 17.0996 29.3867 16.9095C29.3976 16.7444 29.3294 16.584 29.2031 16.4773C29.0575 16.3544 28.7489 16.3544 28.1315 16.3544H20.7178L23.0615 10.1044Z" fill="white"/>
</svg>
