<svg width="40" height="40" viewBox="0 0 40 40" fill="none" xmlns="http://www.w3.org/2000/svg">
<rect width="40" height="40" rx="20" fill="#00B2F7"/>
<g clip-path="url(#clip0_1397_5746)">
<path d="M15.7768 8.87601C8.73092 10.7788 6.02248 17.307 12.3462 19.502H12.2949C12.3247 19.506 12.3546 19.5107 12.3843 19.5151C12.8054 19.6593 13.2669 19.7838 13.7686 19.8873C16.1262 20.8133 17.8316 23.0572 17.9698 25.25C16.3989 26.3326 15.1822 28.1958 15.1822 28.1958L16.4141 30.0092L14.4819 31.1094H18.3242C16.4293 29.214 17.773 27.0825 20.0176 27.0825C22.2929 27.0825 23.4837 29.3378 21.7124 31.1094H25.5152L23.6226 30.0092L24.8546 28.1958C24.8546 28.1958 23.6182 26.3021 22.0289 25.2237C22.1791 23.0392 23.8804 20.8096 26.2287 19.8872C26.7305 19.7838 27.1917 19.6594 27.6129 19.5151C27.6425 19.5107 27.6725 19.506 27.7023 19.502H27.6496C33.9743 17.3073 31.2666 10.7789 24.2203 8.87592C22.3115 10.7214 24.5269 13.6423 26.2653 11.542C27.995 14.7801 26.6686 17.5227 22.8772 15.4517C22.3203 16.5997 21.2734 17.3911 20.0324 17.3911C18.7807 17.3911 17.7277 16.5864 17.1745 15.4223C13.3413 17.5495 11.9942 14.7955 13.7321 11.542C15.4707 13.6423 17.686 10.7213 15.7771 8.87596L15.7768 8.87601ZM20.0326 10.5598C18.7488 10.5598 17.6265 11.8514 17.6265 13.5415C17.6265 15.2316 18.7488 16.4944 20.0326 16.4944C21.3164 16.4944 22.4386 15.2316 22.4386 13.5415C22.4386 11.8513 21.3164 10.5598 20.0326 10.5598L20.0326 10.5598Z" fill="white"/>
</g>
<defs>
<clipPath id="clip0_1397_5746">
<rect width="24" height="24" fill="white" transform="translate(8 8)"/>
</clipPath>
</defs>
</svg>
