<svg width="64" height="64" viewBox="0 0 64 64" fill="none" xmlns="http://www.w3.org/2000/svg">
<rect width="64" height="64" rx="32" fill="#00B2F7"/>
<path d="M49.7445 31.1703C48.0875 23.6789 45.5937 19.6804 41.8945 18.5883C41.1169 18.3601 40.3103 18.2462 39.5 18.25C38.4289 18.25 37.4961 18.5109 36.5094 18.7875C35.3203 19.1211 33.9695 19.5 32 19.5C30.0305 19.5 28.6789 19.1218 27.4875 18.7883C26.5 18.5109 25.568 18.25 24.5 18.25C23.662 18.247 22.8278 18.3606 22.0211 18.5875C18.3414 19.675 15.8492 23.6718 14.168 31.1656C12.3602 39.2297 13.25 44.3211 16.6633 45.5023C17.1311 45.6673 17.6234 45.7523 18.1195 45.7539C20.4578 45.7539 22.3328 43.8062 23.6141 42.2117C25.0617 40.407 26.7562 39.4914 32 39.4914C36.6836 39.4914 38.6219 40.1265 40.2961 42.2117C41.3484 43.5226 42.343 44.4398 43.3352 45.0172C44.6547 45.7843 45.9734 45.9547 47.2539 45.5148C49.2711 44.8265 50.4273 43.007 50.6914 40.1054C50.8922 37.8804 50.5828 34.9578 49.7445 31.1703ZM28.25 30.75H25.75V33.25C25.75 33.5815 25.6183 33.8994 25.3839 34.1339C25.1495 34.3683 24.8315 34.5 24.5 34.5C24.1685 34.5 23.8505 34.3683 23.6161 34.1339C23.3817 33.8994 23.25 33.5815 23.25 33.25V30.75H20.75C20.4185 30.75 20.1005 30.6183 19.8661 30.3839C19.6317 30.1494 19.5 29.8315 19.5 29.5C19.5 29.1684 19.6317 28.8505 19.8661 28.6161C20.1005 28.3817 20.4185 28.25 20.75 28.25H23.25V25.75C23.25 25.4184 23.3817 25.1005 23.6161 24.8661C23.8505 24.6317 24.1685 24.5 24.5 24.5C24.8315 24.5 25.1495 24.6317 25.3839 24.8661C25.6183 25.1005 25.75 25.4184 25.75 25.75V28.25H28.25C28.5815 28.25 28.8995 28.3817 29.1339 28.6161C29.3683 28.8505 29.5 29.1684 29.5 29.5C29.5 29.8315 29.3683 30.1494 29.1339 30.3839C28.8995 30.6183 28.5815 30.75 28.25 30.75ZM34.8125 31.0625C34.5035 31.0625 34.2014 30.9708 33.9444 30.7991C33.6875 30.6275 33.4872 30.3834 33.3689 30.0979C33.2507 29.8124 33.2197 29.4982 33.28 29.1951C33.3403 28.892 33.4891 28.6136 33.7076 28.3951C33.9262 28.1766 34.2046 28.0278 34.5077 27.9675C34.8108 27.9072 35.1249 27.9381 35.4104 28.0564C35.6959 28.1747 35.94 28.3749 36.1117 28.6319C36.2834 28.8888 36.375 29.1909 36.375 29.5C36.375 29.9144 36.2104 30.3118 35.9174 30.6048C35.6243 30.8979 35.2269 31.0625 34.8125 31.0625ZM38.25 34.5C37.9408 34.5 37.6386 34.4082 37.3815 34.2364C37.1245 34.0645 36.9242 33.8202 36.8061 33.5345C36.6879 33.2488 36.6572 32.9344 36.7178 32.6312C36.7784 32.328 36.9276 32.0496 37.1465 31.8312C37.3654 31.6129 37.6442 31.4644 37.9476 31.4045C38.2509 31.3447 38.5652 31.3762 38.8507 31.495C39.1361 31.6139 39.3799 31.8148 39.5511 32.0722C39.7223 32.3297 39.8133 32.6322 39.8125 32.9414C39.8115 33.3551 39.6464 33.7515 39.3535 34.0437C39.0606 34.3359 38.6637 34.5 38.25 34.5ZM38.25 27.625C37.941 27.625 37.6389 27.5333 37.3819 27.3616C37.125 27.19 36.9247 26.9459 36.8064 26.6604C36.6882 26.3749 36.6572 26.0607 36.7175 25.7576C36.7778 25.4545 36.9266 25.1761 37.1451 24.9576C37.3637 24.7391 37.6421 24.5903 37.9452 24.53C38.2483 24.4697 38.5624 24.5006 38.8479 24.6189C39.1334 24.7372 39.3775 24.9374 39.5492 25.1944C39.7209 25.4513 39.8125 25.7534 39.8125 26.0625C39.8125 26.4769 39.6479 26.8743 39.3549 27.1673C39.0618 27.4603 38.6644 27.625 38.25 27.625ZM41.6875 31.0625C41.3785 31.0625 41.0764 30.9708 40.8194 30.7991C40.5625 30.6275 40.3622 30.3834 40.2439 30.0979C40.1257 29.8124 40.0947 29.4982 40.155 29.1951C40.2153 28.892 40.3641 28.6136 40.5826 28.3951C40.8012 28.1766 41.0796 28.0278 41.3827 27.9675C41.6858 27.9072 41.9999 27.9381 42.2854 28.0564C42.5709 28.1747 42.815 28.3749 42.9867 28.6319C43.1584 28.8888 43.25 29.1909 43.25 29.5C43.25 29.9144 43.0854 30.3118 42.7924 30.6048C42.4993 30.8979 42.1019 31.0625 41.6875 31.0625Z" fill="white"/>
</svg>
