<svg width="64" height="64" viewBox="0 0 64 64" fill="none" xmlns="http://www.w3.org/2000/svg">
<rect width="64" height="64" rx="32" fill="#F15551"/>
<path fill-rule="evenodd" clip-rule="evenodd" d="M12 32C12 32 19.5 17 32 17C44.5 17 52 32 52 32C52 32 44.5 47 32 47C19.5 47 12 32 12 32ZM16.525 32.325L16.325 32L16.53 31.675C17.345 30.4 18.545 28.7075 20.08 27.035C23.235 23.5875 27.3 20.75 32 20.75C36.695 20.75 40.765 23.5875 43.925 27.035C45.3231 28.5728 46.5782 30.2347 47.675 32C46.5733 33.7632 45.3167 35.4248 43.92 36.965C40.765 40.4125 36.7 43.25 32 43.25C27.305 43.25 23.235 40.4125 20.075 36.965C18.7617 35.5223 17.574 33.97 16.525 32.325ZM39.5 32C39.4995 33.5788 39.0008 35.1172 38.075 36.396C37.1491 37.6749 35.8433 38.6289 34.3435 39.1222C32.8437 39.6156 31.2265 39.623 29.7223 39.1435C28.218 38.6641 26.9035 37.7221 25.9658 36.4519C25.0282 35.1816 24.5154 33.6479 24.5003 32.0691C24.4853 30.4904 24.9689 28.9472 25.8822 27.6593C26.7955 26.3715 28.0919 25.4047 29.5867 24.8966C31.0816 24.3886 32.6986 24.3653 34.2075 24.83C33.655 25.08 33.1713 25.4603 32.798 25.9383C32.4248 26.4163 32.173 26.9776 32.0643 27.5743C31.9556 28.1709 31.9932 28.785 32.1739 29.3639C32.3546 29.9429 32.673 30.4693 33.1019 30.8981C33.5307 31.327 34.0571 31.6454 34.6361 31.8261C35.215 32.0068 35.8291 32.0444 36.4257 31.9357C37.0224 31.827 37.5837 31.5752 38.0617 31.202C38.5397 30.8287 38.92 30.345 39.17 29.7925C39.3895 30.5078 39.5007 31.2518 39.5 32Z" fill="white"/>
</svg>
