<svg width="64" height="64" viewBox="0 0 64 64" fill="none" xmlns="http://www.w3.org/2000/svg">
<rect width="64" height="64" rx="32" fill="#4BCA51"/>
<path d="M32 38.6666C33.3333 38.6666 34.5211 38.271 35.5633 37.4799C36.6056 36.6888 37.3622 35.6677 37.8333 34.4166H26.1667C26.6389 35.6666 27.3961 36.6877 28.4383 37.4799C29.4806 38.2722 30.6678 38.6677 32 38.6666ZM27.8333 31.9999C28.5278 31.9999 29.1183 31.7571 29.605 31.2716C30.0917 30.786 30.3344 30.1955 30.3333 29.4999C30.3322 28.8044 30.0894 28.2144 29.605 27.7299C29.1206 27.2455 28.53 27.0021 27.8333 26.9999C27.1367 26.9977 26.5467 27.241 26.0633 27.7299C25.58 28.2188 25.3367 28.8088 25.3333 29.4999C25.33 30.191 25.5733 30.7816 26.0633 31.2716C26.5533 31.7616 27.1433 32.0044 27.8333 31.9999ZM36.1667 31.9999C36.8611 31.9999 37.4517 31.7571 37.9383 31.2716C38.425 30.786 38.6678 30.1955 38.6667 29.4999C38.6656 28.8044 38.4228 28.2144 37.9383 27.7299C37.4539 27.2455 36.8633 27.0021 36.1667 26.9999C35.47 26.9977 34.88 27.241 34.3967 27.7299C33.9133 28.2188 33.67 28.8088 33.6667 29.4999C33.6633 30.191 33.9067 30.7816 34.3967 31.2716C34.8867 31.7616 35.4767 32.0044 36.1667 31.9999ZM24.7083 22.6666L29.375 16.6249C29.7083 16.1805 30.1044 15.8544 30.5633 15.6466C31.0222 15.4388 31.5011 15.3344 32 15.3333C32.4989 15.3321 32.9783 15.4366 33.4383 15.6466C33.8983 15.8566 34.2939 16.1827 34.625 16.6249L39.2917 22.6666L46.375 25.0416C47.0972 25.2638 47.6667 25.6738 48.0833 26.2716C48.5 26.8694 48.7083 27.5288 48.7083 28.2499C48.7083 28.5833 48.6594 28.9166 48.5617 29.2499C48.4639 29.5833 48.3044 29.9027 48.0833 30.2083L43.5 36.7083L43.6667 43.5416C43.6944 44.5138 43.375 45.3333 42.7083 45.9999C42.0417 46.6666 41.2639 46.9999 40.375 46.9999C40.3194 46.9999 40.0139 46.9583 39.4583 46.8749L32 44.7916L24.5417 46.8749C24.4028 46.9305 24.25 46.9655 24.0833 46.9799C23.9167 46.9944 23.7639 47.001 23.625 46.9999C22.7361 46.9999 21.9583 46.6666 21.2917 45.9999C20.625 45.3333 20.3056 44.5138 20.3333 43.5416L20.5 36.6666L15.9583 30.2083C15.7361 29.9027 15.5761 29.5833 15.4783 29.2499C15.3806 28.9166 15.3322 28.5833 15.3333 28.2499C15.3333 27.5555 15.535 26.9099 15.9383 26.3133C16.3417 25.7166 16.9039 25.2927 17.625 25.0416L24.7083 22.6666Z" fill="white"/>
</svg>
