<svg width="64" height="64" viewBox="0 0 64 64" fill="none" xmlns="http://www.w3.org/2000/svg">
<rect width="64" height="64" rx="32" fill="#FF9517"/>
<g clip-path="url(#clip0_1403_6373)">
<path fill-rule="evenodd" clip-rule="evenodd" d="M44.3474 36.5166H32.592C33.9259 36.3978 35.1626 35.7696 36.0454 34.7627C36.9282 33.7557 37.389 32.4474 37.3323 31.1094C37.2755 29.7715 36.7054 28.5069 35.7405 27.5784C34.7755 26.6498 33.49 26.1288 32.1509 26.1234H28.3109C28.885 25.3515 29.2956 24.4705 29.5176 23.5345C29.7396 22.5984 29.7684 21.6269 29.6022 20.6794C29.4359 19.7318 29.0782 18.8281 28.5508 18.0236C28.0234 17.219 27.3374 16.5304 26.5349 16H44.3474C45.165 16.0012 45.9487 16.3268 46.5264 16.9054C47.1041 17.484 47.4286 18.2681 47.4286 19.0857V33.4377C47.4286 35.1383 46.048 36.5189 44.3474 36.5189V36.5166ZM22.624 26.128C23.1868 26.1411 23.7466 26.0416 24.2704 25.8352C24.7942 25.6289 25.2715 25.3199 25.6741 24.9265C26.0768 24.5331 26.3968 24.0631 26.6153 23.5443C26.8337 23.0254 26.9463 22.4681 26.9463 21.9051C26.9463 21.3422 26.8337 20.7849 26.6153 20.266C26.3968 19.7472 26.0768 19.2772 25.6741 18.8838C25.2715 18.4904 24.7942 18.1814 24.2704 17.9751C23.7466 17.7687 23.1868 17.6692 22.624 17.6823C21.521 17.7079 20.4719 18.1641 19.7009 18.9533C18.9299 19.7424 18.4983 20.8019 18.4983 21.9051C18.4983 23.0084 18.9299 24.0679 19.7009 24.857C20.4719 25.6462 21.521 26.1023 22.624 26.128ZM34.4983 31.3303C34.4983 30.032 33.4469 28.9806 32.1509 28.9806H22.6263C21.0198 28.9806 19.4792 29.6187 18.3432 30.7547C17.2073 31.8906 16.5692 33.4313 16.5692 35.0377V37.792C16.5692 39.008 17.5566 39.9931 18.7726 39.9931H19.1657L19.8103 45.9589C19.8706 46.519 20.1356 47.0371 20.5545 47.4138C20.9734 47.7906 21.5166 47.9993 22.08 48H23.2274C23.7788 47.9998 24.3116 47.8002 24.7274 47.4381C25.1433 47.076 25.4142 46.5758 25.4903 46.0297L27.2114 33.6777H32.1486C33.4446 33.6777 34.496 32.6263 34.496 31.3303H34.4983Z" fill="white"/>
</g>
<defs>
<clipPath id="clip0_1403_6373">
<rect width="32" height="32" fill="white" transform="translate(16 16)"/>
</clipPath>
</defs>
</svg>
